<svg width="1180" height="300" viewBox="0 0 1180 300" fill="none" xmlns="http://www.w3.org/2000/svg">
<g opacity="0.25">
<path opacity="0.25" fill-rule="evenodd" clip-rule="evenodd" d="M1037.61 -444.481C1156.97 -326.985 1329.52 -216.822 1327.63 -49.3281C1325.75 118.16 1165.34 242.298 1028.79 339.351C919.328 417.144 772.158 384.442 647.4 434.118C505.377 490.669 406.688 659.693 254.306 647.735C96.7874 635.374 -34.6826 508.054 -118.308 374.03C-199.291 244.241 -214.519 83.7439 -192.033 -67.6001C-171.567 -205.347 -96.885 -327.356 0.669972 -426.765C88.569 -516.334 207.935 -555.211 326.588 -596.077C449.306 -638.343 572.728 -694.563 699.649 -667.502C834.979 -638.648 939.014 -541.538 1037.61 -444.481Z" stroke="white" stroke-width="7"/>
<path opacity="0.5" fill-rule="evenodd" clip-rule="evenodd" d="M918.092 -602.325C1037.45 -484.83 1210 -374.666 1208.11 -207.173C1206.23 -39.6848 1045.82 84.4536 909.266 181.507C799.808 259.299 652.638 226.597 527.881 276.274C385.857 332.825 287.168 501.848 134.786 489.89C-22.7325 477.529 -154.203 350.21 -237.828 216.186C-318.811 86.3962 -334.039 -74.1008 -311.553 -225.445C-291.087 -363.192 -216.405 -485.2 -118.85 -584.609C-30.9509 -674.179 88.4152 -713.056 207.068 -753.922C329.786 -796.187 453.208 -852.407 580.129 -825.347C715.46 -796.493 819.494 -699.383 918.092 -602.325Z" stroke="white" stroke-width="7"/>
<path opacity="0.75" fill-rule="evenodd" clip-rule="evenodd" d="M798.572 -760.17C917.932 -642.675 1090.48 -532.511 1088.59 -365.018C1086.71 -197.53 926.304 -73.3914 789.746 23.6616C680.288 101.454 533.118 68.7525 408.361 118.429C266.337 174.98 167.649 344.003 15.2662 332.045C-142.252 319.684 -273.722 192.365 -357.348 58.3407C-438.331 -71.4487 -453.559 -231.946 -431.073 -383.29C-410.607 -521.037 -335.925 -643.045 -238.37 -742.454C-150.471 -832.024 -31.1047 -870.901 87.5481 -911.767C210.266 -954.032 333.688 -1010.25 460.609 -983.192C595.94 -954.338 699.974 -857.228 798.572 -760.17Z" stroke="white" stroke-width="7"/>
<path fill-rule="evenodd" clip-rule="evenodd" d="M679.052 -918.015C798.413 -800.52 970.96 -690.356 969.074 -522.863C967.188 -355.375 806.784 -231.236 670.226 -134.183C560.768 -56.3907 413.598 -89.0924 288.841 -39.4163C146.817 17.1347 48.1286 186.158 -104.254 174.2C-261.772 161.839 -393.242 34.5197 -476.868 -99.5042C-557.851 -229.294 -573.079 -389.791 -550.593 -541.135C-530.127 -678.881 -455.445 -800.89 -357.89 -900.299C-269.991 -989.868 -150.625 -1028.75 -31.9718 -1069.61C90.7458 -1111.88 214.168 -1168.1 341.089 -1141.04C476.42 -1112.18 580.454 -1015.07 679.052 -918.015Z" stroke="white" stroke-width="7"/>
</g>
</svg>
